<svg width="113" height="38" viewBox="0 0 113 38" fill="none" xmlns="http://www.w3.org/2000/svg">
<g filter="url(#filter0_d)">
<mask id="path-1-inside-1" fill="white">
<path d="M9.40425 0.104265C7.25508 1.01099 4.89242 3.56935 4.14622 6.7831C3.20119 10.8537 7.13384 12.5752 7.45639 12.0116C7.83603 11.3482 6.75173 11.1239 6.5285 9.01181C6.24006 6.28382 7.49934 3.2356 9.08435 1.89813C9.37897 1.64964 9.36483 1.99549 9.36483 2.63522C9.36483 3.77939 9.30209 14.0488 9.30209 16.1922C9.30209 19.0924 9.18315 20.0082 8.96947 20.9129C8.75296 21.83 8.40513 22.4496 8.66865 22.6885C8.96328 22.9555 10.221 22.3204 10.9491 21.2969C11.8222 20.0694 12.1278 18.5952 12.1828 16.9943C12.2491 15.0645 12.2462 12.0022 12.2491 10.2555C12.2517 8.6535 12.2757 3.96255 12.2211 1.14253C12.2079 0.450827 10.3031 -0.27487 9.40425 0.104265ZM108.529 15.3398C108.217 15.3398 108.075 15.6634 107.957 16.2083C107.549 18.1027 107.12 18.5303 106.566 18.5303C105.948 18.5303 105.392 17.5922 105.25 15.7147C105.137 14.2384 105.155 11.5202 105.299 8.81655C105.328 8.26102 105.176 7.71136 103.697 7.17007C103.06 6.93707 102.135 6.59442 101.674 7.71457C100.372 10.8792 99.8626 13.3918 99.7428 14.4121C99.7366 14.465 99.6725 14.4756 99.661 14.3523C99.5846 13.5349 99.4139 12.0493 99.3927 8.92851C99.3886 8.31958 99.2605 7.80125 98.5931 7.3769C98.1601 7.10136 96.8452 6.61454 96.3717 7.19392C95.9616 7.66775 95.4864 8.94293 94.9927 10.4545C94.5915 11.6829 94.3121 12.5139 94.3121 12.5139C94.3121 12.5139 94.3172 9.19907 94.3222 7.94169C94.3243 7.46733 94.0012 7.30909 93.9038 7.28061C93.4655 7.15245 92.6014 6.93832 92.2349 6.93832C91.7823 6.93832 91.6714 7.19303 91.6714 7.56416C91.6714 7.61275 91.6 11.9285 91.6 14.9463C91.6 15.0773 91.6002 15.2204 91.6007 15.3724C91.3505 16.7594 90.5389 18.6422 89.6562 18.6422C88.7725 18.6422 88.3558 17.8551 88.3558 14.2574C88.3558 12.1588 88.4183 11.246 88.4489 9.72826C88.467 8.85393 88.5014 8.18234 88.4993 8.03016C88.4928 7.56291 87.6905 7.32742 87.3173 7.2402C86.9422 7.15263 86.6163 7.11845 86.3618 7.13305C86.0016 7.15352 85.7469 7.3915 85.7469 7.71884C85.7469 7.89434 85.7489 8.22791 85.7489 8.22791C85.2849 7.49367 84.5385 6.98264 84.0423 6.83454C82.705 6.43476 81.3097 6.78915 80.2572 8.27223C79.4207 9.45076 78.9164 10.7857 78.718 12.7035C78.5728 14.1054 78.6202 15.5272 78.8781 16.7296C78.5665 18.0863 77.988 18.6422 77.3546 18.6422C76.435 18.6422 75.7683 17.1307 75.8457 14.5162C75.8968 12.7966 76.2385 11.5899 76.6119 9.84413C76.7712 9.09975 76.6418 8.71029 76.3173 8.33685C76.0197 7.9942 75.3857 7.81941 74.4739 8.03461C73.8245 8.18786 72.8959 8.35304 72.0467 8.47978C72.0467 8.47978 72.098 8.27384 72.14 7.91072C72.3609 6.0065 70.3063 6.161 69.6508 6.76922C69.2595 7.13233 68.9932 7.5606 68.8921 8.33062C68.7318 9.55239 69.7212 10.1289 69.7212 10.1289C69.3965 11.6259 68.6006 13.581 67.7791 14.9947C67.3391 15.7521 67.0022 16.3133 66.5678 16.9099C66.5661 16.6882 66.565 16.4664 66.5642 16.2446C66.5541 13.0978 66.5959 10.6211 66.6141 9.72843C66.6321 8.85411 66.6669 8.2005 66.6648 8.04831C66.66 7.70656 66.4619 7.57733 66.0497 7.41411C65.6853 7.26957 65.2544 7.16954 64.8074 7.13465C64.2434 7.09051 63.9034 7.39168 63.9124 7.74803C63.9142 7.81531 63.9142 8.22845 63.9142 8.22845C63.4502 7.4942 62.7039 6.98317 62.2076 6.83508C60.8703 6.43529 59.475 6.78969 58.4225 8.27277C57.5862 9.45129 57.0384 11.1051 56.8833 12.6893C56.7387 14.1657 56.7654 15.4204 56.9624 16.4774C56.7498 17.5358 56.1385 18.6426 55.4472 18.6426C54.5635 18.6426 54.0607 17.8555 54.0607 14.2578C54.0607 12.1592 54.1233 11.2466 54.1539 9.72861C54.1719 8.85429 54.2064 8.1827 54.2042 8.03051C54.1977 7.56327 53.3955 7.32778 53.0222 7.24056C52.6316 7.14942 52.2944 7.11614 52.0355 7.13536C51.6936 7.16099 51.4536 7.46893 51.4536 7.69872V8.22845C50.9897 7.4942 50.2433 6.98317 49.747 6.83508C48.4098 6.43529 47.0222 6.79538 45.9619 8.27277C45.2705 9.23609 44.7108 10.3041 44.4227 12.6682C44.3395 13.3514 44.3027 13.9913 44.3075 14.5892C44.0318 16.2873 42.8142 18.2444 41.8179 18.2444C41.235 18.2444 40.6799 17.1059 40.6799 14.6793C40.6799 11.4468 40.8787 6.84469 40.9121 6.40112C40.9121 6.40112 42.1707 6.37958 42.4144 6.37673C43.0424 6.36979 43.6109 6.38474 44.4469 6.34167C44.8663 6.32013 45.2704 4.8043 44.8375 4.61669C44.6415 4.53179 43.2548 4.45738 42.7053 4.44563C42.2431 4.43513 40.9563 4.33919 40.9563 4.33919C40.9563 4.33919 41.0717 1.28439 41.0988 0.961681C41.1216 0.692548 40.776 0.554244 40.5779 0.470051C40.0959 0.264997 39.665 0.166564 39.1541 0.0604777C38.4482 -0.0861925 38.1277 0.0572738 38.0654 0.657483C37.9712 1.56794 37.9224 4.23542 37.9224 4.23542C37.4042 4.23542 35.6348 4.13343 35.1166 4.13343C34.635 4.13343 34.1156 6.21867 34.7812 6.2443C35.547 6.27421 36.8815 6.30002 37.7663 6.32689C37.7663 6.32689 37.7269 11.005 37.7269 12.4493C37.7269 12.6029 37.7274 12.7508 37.7285 12.8945C37.2416 15.4505 35.5263 16.8313 35.5263 16.8313C35.8946 15.1403 35.1422 13.8704 33.7872 12.7955C33.2877 12.3993 32.3022 11.6496 31.1993 10.8277C31.1993 10.8277 31.8381 10.1937 32.4045 8.91801C32.8059 8.01449 32.8232 6.9805 31.8379 6.75249C30.2103 6.37567 28.868 7.57947 28.4676 8.86479C28.1575 9.86069 28.3229 10.5994 28.9305 11.3671C28.9749 11.4232 29.023 11.4803 29.0726 11.538C28.7052 12.2512 28.2004 13.2115 27.7729 13.9562C26.5861 16.0239 25.6898 17.6593 25.0122 17.6593C24.4707 17.6593 24.4781 15.9989 24.4781 14.4443C24.4781 13.1042 24.5764 11.0892 24.6548 9.00309C24.6808 8.31317 24.3381 7.92015 23.7639 7.56416C23.415 7.34789 22.6704 6.92265 22.2393 6.92265C21.5939 6.92265 19.7315 7.01112 17.9719 12.1373C17.7501 12.7834 17.3144 13.9607 17.3144 13.9607L17.3519 7.79627C17.3519 7.65173 17.2754 7.51183 17.1004 7.41624C16.8038 7.25426 16.0119 6.92265 15.3077 6.92265C14.9723 6.92265 14.8047 7.07983 14.8047 7.3931L14.7432 17.0376C14.7432 17.7704 14.7621 18.6253 14.8342 18.9991C14.9058 19.3736 15.0219 19.678 15.1658 19.8592C15.3093 20.04 15.4755 20.178 15.7494 20.2349C16.0043 20.2878 17.4 20.4683 17.4726 19.9311C17.5596 19.2873 17.5628 18.5909 18.2957 15.994C19.4367 11.9507 20.9244 9.97799 21.6239 9.27739C21.746 9.15492 21.8857 9.14763 21.8789 9.34805C21.8492 10.2343 21.7443 12.4495 21.6734 14.3313C21.4839 19.3672 22.3936 20.3006 23.6935 20.3006C24.6881 20.3006 26.09 19.3053 27.5928 16.7862C28.5295 15.2163 29.4392 13.677 30.0929 12.5675C30.5484 12.9922 31.0594 13.4491 31.5703 13.9374C32.7573 15.0719 33.147 16.1501 32.8885 17.1728C32.6907 17.9548 31.9459 18.7606 30.6203 17.9774C30.234 17.749 30.0689 17.5724 29.6806 17.3147C29.4719 17.1764 29.1534 17.1349 28.9623 17.28C28.4659 17.6568 28.182 18.1363 28.02 18.7298C27.8623 19.3072 28.4365 19.6125 29.0318 19.8795C29.5443 20.1093 30.646 20.3175 31.3485 20.3412C34.0857 20.4334 36.2787 19.0101 37.805 15.3387C38.0784 18.5094 39.2412 20.3036 41.2619 20.3036C42.6127 20.3036 43.9671 18.5452 44.5593 16.8152C44.7294 17.5205 44.981 18.1335 45.3061 18.6522C46.863 21.1365 49.8833 20.6018 51.4004 18.4923C51.8693 17.8405 51.9409 17.6061 51.9409 17.6061C52.1622 19.5981 53.755 20.2942 54.6669 20.2942C55.6883 20.2942 56.7429 19.8079 57.4821 18.1321C57.5668 18.3109 57.6617 18.4846 57.7664 18.6524C59.3233 21.1367 62.3437 20.602 63.8608 18.4925C63.9322 18.3934 63.9944 18.3037 64.0485 18.223L64.093 19.5317L62.6964 20.8218C60.3552 22.9829 58.5764 24.6221 58.4456 26.5309C58.2793 28.9648 60.2381 29.8694 61.7222 29.988C63.2956 30.1138 64.6453 29.2377 65.4739 28.0115C66.203 26.9325 66.68 24.6098 66.6452 22.3156C66.6312 21.3969 66.6082 20.2289 66.59 18.9768C67.4119 18.0157 68.338 16.8006 69.1904 15.3788C70.1197 13.829 71.1155 11.748 71.6252 10.1284C71.6252 10.1284 72.4903 10.1359 73.4136 10.075C73.709 10.0556 73.7936 10.1161 73.7392 10.3343C73.6732 10.5976 72.5727 14.8729 73.5771 17.7209C74.2646 19.6705 75.8145 20.2978 76.7333 20.2978C77.809 20.2978 78.8378 19.4797 79.3892 18.2649C79.4557 18.4003 79.5253 18.5313 79.6009 18.6524C81.1579 21.1367 84.1676 20.5989 85.6953 18.4925C86.04 18.0173 86.2358 17.6063 86.2358 17.6063C86.5636 19.6678 88.1555 20.3047 89.0673 20.3047C90.0171 20.3047 90.9185 19.9126 91.6497 18.1698C91.6803 18.9373 91.7283 19.5646 91.8043 19.7624C91.8506 19.8834 92.1205 20.0352 92.3169 20.1086C93.1857 20.4329 94.0719 20.2796 94.3998 20.2129C94.6269 20.1666 94.804 19.9831 94.8282 19.5092C94.8916 18.265 94.8528 16.1746 95.2273 14.6209C95.8559 12.0136 96.4424 11.002 96.7206 10.5015C96.8763 10.221 97.0519 10.1747 97.0583 10.4716C97.0712 11.0723 97.1009 12.8365 97.3446 15.2067C97.5235 16.9498 97.7623 17.9802 97.9459 18.3063C98.4699 19.2387 99.1172 19.2828 99.6442 19.2828C99.9793 19.2828 100.681 19.1897 100.618 18.5963C100.587 18.307 100.641 16.5194 101.261 13.9507C101.665 12.2733 102.34 10.7578 102.584 10.2035C102.673 9.99917 102.715 10.1603 102.714 10.1916C102.662 11.3468 102.547 15.1253 103.015 17.1919C103.648 19.9916 105.48 20.3047 106.119 20.3047C107.482 20.3047 108.597 19.2604 108.973 16.5125C109.064 15.8505 108.93 15.3398 108.529 15.3398V15.3398ZM51.4257 13.641C51.3476 15.0952 51.0659 16.311 50.6137 17.194C49.7958 18.7923 48.1774 19.299 47.4639 16.9897C46.9494 15.3245 47.1245 13.0538 47.3386 11.8274C47.6562 10.007 48.4515 8.71652 49.6931 8.8388C50.9685 8.96447 51.5885 10.615 51.4257 13.641V13.641ZM63.8861 13.662C63.8133 15.0353 63.4598 16.4147 63.0741 17.1942C62.2781 18.8035 60.6139 19.3065 59.9243 16.9899C59.4527 15.4069 59.5657 13.3583 59.7989 12.0677C60.1017 10.3927 60.8355 8.83898 62.1535 8.83898C63.4349 8.8388 64.0667 10.2546 63.8861 13.662V13.662ZM64.2113 23.0309C64.194 25.5361 63.8027 27.7326 62.9631 28.3705C61.7724 29.2751 60.172 28.5966 60.5034 26.7685C60.7966 25.1509 62.1834 23.4989 64.2148 21.4804C64.2146 21.4804 64.2189 21.9407 64.2113 23.0309V23.0309ZM85.7209 13.6766C85.6517 15.1842 85.3203 16.3628 84.909 17.194C84.1128 18.8033 82.4604 19.3029 81.7591 16.9897C81.3768 15.7287 81.359 13.6227 81.6338 11.863C81.9136 10.0705 82.6948 8.71652 83.9884 8.8388C85.2642 8.95931 85.8614 10.615 85.7209 13.6766V13.6766Z"/>
</mask>
<path d="M9.40425 0.104265C7.25508 1.01099 4.89242 3.56935 4.14622 6.7831C3.20119 10.8537 7.13384 12.5752 7.45639 12.0116C7.83603 11.3482 6.75173 11.1239 6.5285 9.01181C6.24006 6.28382 7.49934 3.2356 9.08435 1.89813C9.37897 1.64964 9.36483 1.99549 9.36483 2.63522C9.36483 3.77939 9.30209 14.0488 9.30209 16.1922C9.30209 19.0924 9.18315 20.0082 8.96947 20.9129C8.75296 21.83 8.40513 22.4496 8.66865 22.6885C8.96328 22.9555 10.221 22.3204 10.9491 21.2969C11.8222 20.0694 12.1278 18.5952 12.1828 16.9943C12.2491 15.0645 12.2462 12.0022 12.2491 10.2555C12.2517 8.6535 12.2757 3.96255 12.2211 1.14253C12.2079 0.450827 10.3031 -0.27487 9.40425 0.104265ZM108.529 15.3398C108.217 15.3398 108.075 15.6634 107.957 16.2083C107.549 18.1027 107.12 18.5303 106.566 18.5303C105.948 18.5303 105.392 17.5922 105.25 15.7147C105.137 14.2384 105.155 11.5202 105.299 8.81655C105.328 8.26102 105.176 7.71136 103.697 7.17007C103.06 6.93707 102.135 6.59442 101.674 7.71457C100.372 10.8792 99.8626 13.3918 99.7428 14.4121C99.7366 14.465 99.6725 14.4756 99.661 14.3523C99.5846 13.5349 99.4139 12.0493 99.3927 8.92851C99.3886 8.31958 99.2605 7.80125 98.5931 7.3769C98.1601 7.10136 96.8452 6.61454 96.3717 7.19392C95.9616 7.66775 95.4864 8.94293 94.9927 10.4545C94.5915 11.6829 94.3121 12.5139 94.3121 12.5139C94.3121 12.5139 94.3172 9.19907 94.3222 7.94169C94.3243 7.46733 94.0012 7.30909 93.9038 7.28061C93.4655 7.15245 92.6014 6.93832 92.2349 6.93832C91.7823 6.93832 91.6714 7.19303 91.6714 7.56416C91.6714 7.61275 91.6 11.9285 91.6 14.9463C91.6 15.0773 91.6002 15.2204 91.6007 15.3724C91.3505 16.7594 90.5389 18.6422 89.6562 18.6422C88.7725 18.6422 88.3558 17.8551 88.3558 14.2574C88.3558 12.1588 88.4183 11.246 88.4489 9.72826C88.467 8.85393 88.5014 8.18234 88.4993 8.03016C88.4928 7.56291 87.6905 7.32742 87.3173 7.2402C86.9422 7.15263 86.6163 7.11845 86.3618 7.13305C86.0016 7.15352 85.7469 7.3915 85.7469 7.71884C85.7469 7.89434 85.7489 8.22791 85.7489 8.22791C85.2849 7.49367 84.5385 6.98264 84.0423 6.83454C82.705 6.43476 81.3097 6.78915 80.2572 8.27223C79.4207 9.45076 78.9164 10.7857 78.718 12.7035C78.5728 14.1054 78.6202 15.5272 78.8781 16.7296C78.5665 18.0863 77.988 18.6422 77.3546 18.6422C76.435 18.6422 75.7683 17.1307 75.8457 14.5162C75.8968 12.7966 76.2385 11.5899 76.6119 9.84413C76.7712 9.09975 76.6418 8.71029 76.3173 8.33685C76.0197 7.9942 75.3857 7.81941 74.4739 8.03461C73.8245 8.18786 72.8959 8.35304 72.0467 8.47978C72.0467 8.47978 72.098 8.27384 72.14 7.91072C72.3609 6.0065 70.3063 6.161 69.6508 6.76922C69.2595 7.13233 68.9932 7.5606 68.8921 8.33062C68.7318 9.55239 69.7212 10.1289 69.7212 10.1289C69.3965 11.6259 68.6006 13.581 67.7791 14.9947C67.3391 15.7521 67.0022 16.3133 66.5678 16.9099C66.5661 16.6882 66.565 16.4664 66.5642 16.2446C66.5541 13.0978 66.5959 10.6211 66.6141 9.72843C66.6321 8.85411 66.6669 8.2005 66.6648 8.04831C66.66 7.70656 66.4619 7.57733 66.0497 7.41411C65.6853 7.26957 65.2544 7.16954 64.8074 7.13465C64.2434 7.09051 63.9034 7.39168 63.9124 7.74803C63.9142 7.81531 63.9142 8.22845 63.9142 8.22845C63.4502 7.4942 62.7039 6.98317 62.2076 6.83508C60.8703 6.43529 59.475 6.78969 58.4225 8.27277C57.5862 9.45129 57.0384 11.1051 56.8833 12.6893C56.7387 14.1657 56.7654 15.4204 56.9624 16.4774C56.7498 17.5358 56.1385 18.6426 55.4472 18.6426C54.5635 18.6426 54.0607 17.8555 54.0607 14.2578C54.0607 12.1592 54.1233 11.2466 54.1539 9.72861C54.1719 8.85429 54.2064 8.1827 54.2042 8.03051C54.1977 7.56327 53.3955 7.32778 53.0222 7.24056C52.6316 7.14942 52.2944 7.11614 52.0355 7.13536C51.6936 7.16099 51.4536 7.46893 51.4536 7.69872V8.22845C50.9897 7.4942 50.2433 6.98317 49.747 6.83508C48.4098 6.43529 47.0222 6.79538 45.9619 8.27277C45.2705 9.23609 44.7108 10.3041 44.4227 12.6682C44.3395 13.3514 44.3027 13.9913 44.3075 14.5892C44.0318 16.2873 42.8142 18.2444 41.8179 18.2444C41.235 18.2444 40.6799 17.1059 40.6799 14.6793C40.6799 11.4468 40.8787 6.84469 40.9121 6.40112C40.9121 6.40112 42.1707 6.37958 42.4144 6.37673C43.0424 6.36979 43.6109 6.38474 44.4469 6.34167C44.8663 6.32013 45.2704 4.8043 44.8375 4.61669C44.6415 4.53179 43.2548 4.45738 42.7053 4.44563C42.2431 4.43513 40.9563 4.33919 40.9563 4.33919C40.9563 4.33919 41.0717 1.28439 41.0988 0.961681C41.1216 0.692548 40.776 0.554244 40.5779 0.470051C40.0959 0.264997 39.665 0.166564 39.1541 0.0604777C38.4482 -0.0861925 38.1277 0.0572738 38.0654 0.657483C37.9712 1.56794 37.9224 4.23542 37.9224 4.23542C37.4042 4.23542 35.6348 4.13343 35.1166 4.13343C34.635 4.13343 34.1156 6.21867 34.7812 6.2443C35.547 6.27421 36.8815 6.30002 37.7663 6.32689C37.7663 6.32689 37.7269 11.005 37.7269 12.4493C37.7269 12.6029 37.7274 12.7508 37.7285 12.8945C37.2416 15.4505 35.5263 16.8313 35.5263 16.8313C35.8946 15.1403 35.1422 13.8704 33.7872 12.7955C33.2877 12.3993 32.3022 11.6496 31.1993 10.8277C31.1993 10.8277 31.8381 10.1937 32.4045 8.91801C32.8059 8.01449 32.8232 6.9805 31.8379 6.75249C30.2103 6.37567 28.868 7.57947 28.4676 8.86479C28.1575 9.86069 28.3229 10.5994 28.9305 11.3671C28.9749 11.4232 29.023 11.4803 29.0726 11.538C28.7052 12.2512 28.2004 13.2115 27.7729 13.9562C26.5861 16.0239 25.6898 17.6593 25.0122 17.6593C24.4707 17.6593 24.4781 15.9989 24.4781 14.4443C24.4781 13.1042 24.5764 11.0892 24.6548 9.00309C24.6808 8.31317 24.3381 7.92015 23.7639 7.56416C23.415 7.34789 22.6704 6.92265 22.2393 6.92265C21.5939 6.92265 19.7315 7.01112 17.9719 12.1373C17.7501 12.7834 17.3144 13.9607 17.3144 13.9607L17.3519 7.79627C17.3519 7.65173 17.2754 7.51183 17.1004 7.41624C16.8038 7.25426 16.0119 6.92265 15.3077 6.92265C14.9723 6.92265 14.8047 7.07983 14.8047 7.3931L14.7432 17.0376C14.7432 17.7704 14.7621 18.6253 14.8342 18.9991C14.9058 19.3736 15.0219 19.678 15.1658 19.8592C15.3093 20.04 15.4755 20.178 15.7494 20.2349C16.0043 20.2878 17.4 20.4683 17.4726 19.9311C17.5596 19.2873 17.5628 18.5909 18.2957 15.994C19.4367 11.9507 20.9244 9.97799 21.6239 9.27739C21.746 9.15492 21.8857 9.14763 21.8789 9.34805C21.8492 10.2343 21.7443 12.4495 21.6734 14.3313C21.4839 19.3672 22.3936 20.3006 23.6935 20.3006C24.6881 20.3006 26.09 19.3053 27.5928 16.7862C28.5295 15.2163 29.4392 13.677 30.0929 12.5675C30.5484 12.9922 31.0594 13.4491 31.5703 13.9374C32.7573 15.0719 33.147 16.1501 32.8885 17.1728C32.6907 17.9548 31.9459 18.7606 30.6203 17.9774C30.234 17.749 30.0689 17.5724 29.6806 17.3147C29.4719 17.1764 29.1534 17.1349 28.9623 17.28C28.4659 17.6568 28.182 18.1363 28.02 18.7298C27.8623 19.3072 28.4365 19.6125 29.0318 19.8795C29.5443 20.1093 30.646 20.3175 31.3485 20.3412C34.0857 20.4334 36.2787 19.0101 37.805 15.3387C38.0784 18.5094 39.2412 20.3036 41.2619 20.3036C42.6127 20.3036 43.9671 18.5452 44.5593 16.8152C44.7294 17.5205 44.981 18.1335 45.3061 18.6522C46.863 21.1365 49.8833 20.6018 51.4004 18.4923C51.8693 17.8405 51.9409 17.6061 51.9409 17.6061C52.1622 19.5981 53.755 20.2942 54.6669 20.2942C55.6883 20.2942 56.7429 19.8079 57.4821 18.1321C57.5668 18.3109 57.6617 18.4846 57.7664 18.6524C59.3233 21.1367 62.3437 20.602 63.8608 18.4925C63.9322 18.3934 63.9944 18.3037 64.0485 18.223L64.093 19.5317L62.6964 20.8218C60.3552 22.9829 58.5764 24.6221 58.4456 26.5309C58.2793 28.9648 60.2381 29.8694 61.7222 29.988C63.2956 30.1138 64.6453 29.2377 65.4739 28.0115C66.203 26.9325 66.68 24.6098 66.6452 22.3156C66.6312 21.3969 66.6082 20.2289 66.59 18.9768C67.4119 18.0157 68.338 16.8006 69.1904 15.3788C70.1197 13.829 71.1155 11.748 71.6252 10.1284C71.6252 10.1284 72.4903 10.1359 73.4136 10.075C73.709 10.0556 73.7936 10.1161 73.7392 10.3343C73.6732 10.5976 72.5727 14.8729 73.5771 17.7209C74.2646 19.6705 75.8145 20.2978 76.7333 20.2978C77.809 20.2978 78.8378 19.4797 79.3892 18.2649C79.4557 18.4003 79.5253 18.5313 79.6009 18.6524C81.1579 21.1367 84.1676 20.5989 85.6953 18.4925C86.04 18.0173 86.2358 17.6063 86.2358 17.6063C86.5636 19.6678 88.1555 20.3047 89.0673 20.3047C90.0171 20.3047 90.9185 19.9126 91.6497 18.1698C91.6803 18.9373 91.7283 19.5646 91.8043 19.7624C91.8506 19.8834 92.1205 20.0352 92.3169 20.1086C93.1857 20.4329 94.0719 20.2796 94.3998 20.2129C94.6269 20.1666 94.804 19.9831 94.8282 19.5092C94.8916 18.265 94.8528 16.1746 95.2273 14.6209C95.8559 12.0136 96.4424 11.002 96.7206 10.5015C96.8763 10.221 97.0519 10.1747 97.0583 10.4716C97.0712 11.0723 97.1009 12.8365 97.3446 15.2067C97.5235 16.9498 97.7623 17.9802 97.9459 18.3063C98.4699 19.2387 99.1172 19.2828 99.6442 19.2828C99.9793 19.2828 100.681 19.1897 100.618 18.5963C100.587 18.307 100.641 16.5194 101.261 13.9507C101.665 12.2733 102.34 10.7578 102.584 10.2035C102.673 9.99917 102.715 10.1603 102.714 10.1916C102.662 11.3468 102.547 15.1253 103.015 17.1919C103.648 19.9916 105.48 20.3047 106.119 20.3047C107.482 20.3047 108.597 19.2604 108.973 16.5125C109.064 15.8505 108.93 15.3398 108.529 15.3398V15.3398ZM51.4257 13.641C51.3476 15.0952 51.0659 16.311 50.6137 17.194C49.7958 18.7923 48.1774 19.299 47.4639 16.9897C46.9494 15.3245 47.1245 13.0538 47.3386 11.8274C47.6562 10.007 48.4515 8.71652 49.6931 8.8388C50.9685 8.96447 51.5885 10.615 51.4257 13.641V13.641ZM63.8861 13.662C63.8133 15.0353 63.4598 16.4147 63.0741 17.1942C62.2781 18.8035 60.6139 19.3065 59.9243 16.9899C59.4527 15.4069 59.5657 13.3583 59.7989 12.0677C60.1017 10.3927 60.8355 8.83898 62.1535 8.83898C63.4349 8.8388 64.0667 10.2546 63.8861 13.662V13.662ZM64.2113 23.0309C64.194 25.5361 63.8027 27.7326 62.9631 28.3705C61.7724 29.2751 60.172 28.5966 60.5034 26.7685C60.7966 25.1509 62.1834 23.4989 64.2148 21.4804C64.2146 21.4804 64.2189 21.9407 64.2113 23.0309V23.0309ZM85.7209 13.6766C85.6517 15.1842 85.3203 16.3628 84.909 17.194C84.1128 18.8033 82.4604 19.3029 81.7591 16.9897C81.3768 15.7287 81.359 13.6227 81.6338 11.863C81.9136 10.0705 82.6948 8.71652 83.9884 8.8388C85.2642 8.95931 85.8614 10.615 85.7209 13.6766V13.6766Z" fill="#221F20"/>
<path d="M9.40425 0.104265C7.25508 1.01099 4.89242 3.56935 4.14622 6.7831C3.20119 10.8537 7.13384 12.5752 7.45639 12.0116C7.83603 11.3482 6.75173 11.1239 6.5285 9.01181C6.24006 6.28382 7.49934 3.2356 9.08435 1.89813C9.37897 1.64964 9.36483 1.99549 9.36483 2.63522C9.36483 3.77939 9.30209 14.0488 9.30209 16.1922C9.30209 19.0924 9.18315 20.0082 8.96947 20.9129C8.75296 21.83 8.40513 22.4496 8.66865 22.6885C8.96328 22.9555 10.221 22.3204 10.9491 21.2969C11.8222 20.0694 12.1278 18.5952 12.1828 16.9943C12.2491 15.0645 12.2462 12.0022 12.2491 10.2555C12.2517 8.6535 12.2757 3.96255 12.2211 1.14253C12.2079 0.450827 10.3031 -0.27487 9.40425 0.104265ZM108.529 15.3398C108.217 15.3398 108.075 15.6634 107.957 16.2083C107.549 18.1027 107.12 18.5303 106.566 18.5303C105.948 18.5303 105.392 17.5922 105.25 15.7147C105.137 14.2384 105.155 11.5202 105.299 8.81655C105.328 8.26102 105.176 7.71136 103.697 7.17007C103.06 6.93707 102.135 6.59442 101.674 7.71457C100.372 10.8792 99.8626 13.3918 99.7428 14.4121C99.7366 14.465 99.6725 14.4756 99.661 14.3523C99.5846 13.5349 99.4139 12.0493 99.3927 8.92851C99.3886 8.31958 99.2605 7.80125 98.5931 7.3769C98.1601 7.10136 96.8452 6.61454 96.3717 7.19392C95.9616 7.66775 95.4864 8.94293 94.9927 10.4545C94.5915 11.6829 94.3121 12.5139 94.3121 12.5139C94.3121 12.5139 94.3172 9.19907 94.3222 7.94169C94.3243 7.46733 94.0012 7.30909 93.9038 7.28061C93.4655 7.15245 92.6014 6.93832 92.2349 6.93832C91.7823 6.93832 91.6714 7.19303 91.6714 7.56416C91.6714 7.61275 91.6 11.9285 91.6 14.9463C91.6 15.0773 91.6002 15.2204 91.6007 15.3724C91.3505 16.7594 90.5389 18.6422 89.6562 18.6422C88.7725 18.6422 88.3558 17.8551 88.3558 14.2574C88.3558 12.1588 88.4183 11.246 88.4489 9.72826C88.467 8.85393 88.5014 8.18234 88.4993 8.03016C88.4928 7.56291 87.6905 7.32742 87.3173 7.2402C86.9422 7.15263 86.6163 7.11845 86.3618 7.13305C86.0016 7.15352 85.7469 7.3915 85.7469 7.71884C85.7469 7.89434 85.7489 8.22791 85.7489 8.22791C85.2849 7.49367 84.5385 6.98264 84.0423 6.83454C82.705 6.43476 81.3097 6.78915 80.2572 8.27223C79.4207 9.45076 78.9164 10.7857 78.718 12.7035C78.5728 14.1054 78.6202 15.5272 78.8781 16.7296C78.5665 18.0863 77.988 18.6422 77.3546 18.6422C76.435 18.6422 75.7683 17.1307 75.8457 14.5162C75.8968 12.7966 76.2385 11.5899 76.6119 9.84413C76.7712 9.09975 76.6418 8.71029 76.3173 8.33685C76.0197 7.9942 75.3857 7.81941 74.4739 8.03461C73.8245 8.18786 72.8959 8.35304 72.0467 8.47978C72.0467 8.47978 72.098 8.27384 72.14 7.91072C72.3609 6.0065 70.3063 6.161 69.6508 6.76922C69.2595 7.13233 68.9932 7.5606 68.8921 8.33062C68.7318 9.55239 69.7212 10.1289 69.7212 10.1289C69.3965 11.6259 68.6006 13.581 67.7791 14.9947C67.3391 15.7521 67.0022 16.3133 66.5678 16.9099C66.5661 16.6882 66.565 16.4664 66.5642 16.2446C66.5541 13.0978 66.5959 10.6211 66.6141 9.72843C66.6321 8.85411 66.6669 8.2005 66.6648 8.04831C66.66 7.70656 66.4619 7.57733 66.0497 7.41411C65.6853 7.26957 65.2544 7.16954 64.8074 7.13465C64.2434 7.09051 63.9034 7.39168 63.9124 7.74803C63.9142 7.81531 63.9142 8.22845 63.9142 8.22845C63.4502 7.4942 62.7039 6.98317 62.2076 6.83508C60.8703 6.43529 59.475 6.78969 58.4225 8.27277C57.5862 9.45129 57.0384 11.1051 56.8833 12.6893C56.7387 14.1657 56.7654 15.4204 56.9624 16.4774C56.7498 17.5358 56.1385 18.6426 55.4472 18.6426C54.5635 18.6426 54.0607 17.8555 54.0607 14.2578C54.0607 12.1592 54.1233 11.2466 54.1539 9.72861C54.1719 8.85429 54.2064 8.1827 54.2042 8.03051C54.1977 7.56327 53.3955 7.32778 53.0222 7.24056C52.6316 7.14942 52.2944 7.11614 52.0355 7.13536C51.6936 7.16099 51.4536 7.46893 51.4536 7.69872V8.22845C50.9897 7.4942 50.2433 6.98317 49.747 6.83508C48.4098 6.43529 47.0222 6.79538 45.9619 8.27277C45.2705 9.23609 44.7108 10.3041 44.4227 12.6682C44.3395 13.3514 44.3027 13.9913 44.3075 14.5892C44.0318 16.2873 42.8142 18.2444 41.8179 18.2444C41.235 18.2444 40.6799 17.1059 40.6799 14.6793C40.6799 11.4468 40.8787 6.84469 40.9121 6.40112C40.9121 6.40112 42.1707 6.37958 42.4144 6.37673C43.0424 6.36979 43.6109 6.38474 44.4469 6.34167C44.8663 6.32013 45.2704 4.8043 44.8375 4.61669C44.6415 4.53179 43.2548 4.45738 42.7053 4.44563C42.2431 4.43513 40.9563 4.33919 40.9563 4.33919C40.9563 4.33919 41.0717 1.28439 41.0988 0.961681C41.1216 0.692548 40.776 0.554244 40.5779 0.470051C40.0959 0.264997 39.665 0.166564 39.1541 0.0604777C38.4482 -0.0861925 38.1277 0.0572738 38.0654 0.657483C37.9712 1.56794 37.9224 4.23542 37.9224 4.23542C37.4042 4.23542 35.6348 4.13343 35.1166 4.13343C34.635 4.13343 34.1156 6.21867 34.7812 6.2443C35.547 6.27421 36.8815 6.30002 37.7663 6.32689C37.7663 6.32689 37.7269 11.005 37.7269 12.4493C37.7269 12.6029 37.7274 12.7508 37.7285 12.8945C37.2416 15.4505 35.5263 16.8313 35.5263 16.8313C35.8946 15.1403 35.1422 13.8704 33.7872 12.7955C33.2877 12.3993 32.3022 11.6496 31.1993 10.8277C31.1993 10.8277 31.8381 10.1937 32.4045 8.91801C32.8059 8.01449 32.8232 6.9805 31.8379 6.75249C30.2103 6.37567 28.868 7.57947 28.4676 8.86479C28.1575 9.86069 28.3229 10.5994 28.9305 11.3671C28.9749 11.4232 29.023 11.4803 29.0726 11.538C28.7052 12.2512 28.2004 13.2115 27.7729 13.9562C26.5861 16.0239 25.6898 17.6593 25.0122 17.6593C24.4707 17.6593 24.4781 15.9989 24.4781 14.4443C24.4781 13.1042 24.5764 11.0892 24.6548 9.00309C24.6808 8.31317 24.3381 7.92015 23.7639 7.56416C23.415 7.34789 22.6704 6.92265 22.2393 6.92265C21.5939 6.92265 19.7315 7.01112 17.9719 12.1373C17.7501 12.7834 17.3144 13.9607 17.3144 13.9607L17.3519 7.79627C17.3519 7.65173 17.2754 7.51183 17.1004 7.41624C16.8038 7.25426 16.0119 6.92265 15.3077 6.92265C14.9723 6.92265 14.8047 7.07983 14.8047 7.3931L14.7432 17.0376C14.7432 17.7704 14.7621 18.6253 14.8342 18.9991C14.9058 19.3736 15.0219 19.678 15.1658 19.8592C15.3093 20.04 15.4755 20.178 15.7494 20.2349C16.0043 20.2878 17.4 20.4683 17.4726 19.9311C17.5596 19.2873 17.5628 18.5909 18.2957 15.994C19.4367 11.9507 20.9244 9.97799 21.6239 9.27739C21.746 9.15492 21.8857 9.14763 21.8789 9.34805C21.8492 10.2343 21.7443 12.4495 21.6734 14.3313C21.4839 19.3672 22.3936 20.3006 23.6935 20.3006C24.6881 20.3006 26.09 19.3053 27.5928 16.7862C28.5295 15.2163 29.4392 13.677 30.0929 12.5675C30.5484 12.9922 31.0594 13.4491 31.5703 13.9374C32.7573 15.0719 33.147 16.1501 32.8885 17.1728C32.6907 17.9548 31.9459 18.7606 30.6203 17.9774C30.234 17.749 30.0689 17.5724 29.6806 17.3147C29.4719 17.1764 29.1534 17.1349 28.9623 17.28C28.4659 17.6568 28.182 18.1363 28.02 18.7298C27.8623 19.3072 28.4365 19.6125 29.0318 19.8795C29.5443 20.1093 30.646 20.3175 31.3485 20.3412C34.0857 20.4334 36.2787 19.0101 37.805 15.3387C38.0784 18.5094 39.2412 20.3036 41.2619 20.3036C42.6127 20.3036 43.9671 18.5452 44.5593 16.8152C44.7294 17.5205 44.981 18.1335 45.3061 18.6522C46.863 21.1365 49.8833 20.6018 51.4004 18.4923C51.8693 17.8405 51.9409 17.6061 51.9409 17.6061C52.1622 19.5981 53.755 20.2942 54.6669 20.2942C55.6883 20.2942 56.7429 19.8079 57.4821 18.1321C57.5668 18.3109 57.6617 18.4846 57.7664 18.6524C59.3233 21.1367 62.3437 20.602 63.8608 18.4925C63.9322 18.3934 63.9944 18.3037 64.0485 18.223L64.093 19.5317L62.6964 20.8218C60.3552 22.9829 58.5764 24.6221 58.4456 26.5309C58.2793 28.9648 60.2381 29.8694 61.7222 29.988C63.2956 30.1138 64.6453 29.2377 65.4739 28.0115C66.203 26.9325 66.68 24.6098 66.6452 22.3156C66.6312 21.3969 66.6082 20.2289 66.59 18.9768C67.4119 18.0157 68.338 16.8006 69.1904 15.3788C70.1197 13.829 71.1155 11.748 71.6252 10.1284C71.6252 10.1284 72.4903 10.1359 73.4136 10.075C73.709 10.0556 73.7936 10.1161 73.7392 10.3343C73.6732 10.5976 72.5727 14.8729 73.5771 17.7209C74.2646 19.6705 75.8145 20.2978 76.7333 20.2978C77.809 20.2978 78.8378 19.4797 79.3892 18.2649C79.4557 18.4003 79.5253 18.5313 79.6009 18.6524C81.1579 21.1367 84.1676 20.5989 85.6953 18.4925C86.04 18.0173 86.2358 17.6063 86.2358 17.6063C86.5636 19.6678 88.1555 20.3047 89.0673 20.3047C90.0171 20.3047 90.9185 19.9126 91.6497 18.1698C91.6803 18.9373 91.7283 19.5646 91.8043 19.7624C91.8506 19.8834 92.1205 20.0352 92.3169 20.1086C93.1857 20.4329 94.0719 20.2796 94.3998 20.2129C94.6269 20.1666 94.804 19.9831 94.8282 19.5092C94.8916 18.265 94.8528 16.1746 95.2273 14.6209C95.8559 12.0136 96.4424 11.002 96.7206 10.5015C96.8763 10.221 97.0519 10.1747 97.0583 10.4716C97.0712 11.0723 97.1009 12.8365 97.3446 15.2067C97.5235 16.9498 97.7623 17.9802 97.9459 18.3063C98.4699 19.2387 99.1172 19.2828 99.6442 19.2828C99.9793 19.2828 100.681 19.1897 100.618 18.5963C100.587 18.307 100.641 16.5194 101.261 13.9507C101.665 12.2733 102.34 10.7578 102.584 10.2035C102.673 9.99917 102.715 10.1603 102.714 10.1916C102.662 11.3468 102.547 15.1253 103.015 17.1919C103.648 19.9916 105.48 20.3047 106.119 20.3047C107.482 20.3047 108.597 19.2604 108.973 16.5125C109.064 15.8505 108.93 15.3398 108.529 15.3398V15.3398ZM51.4257 13.641C51.3476 15.0952 51.0659 16.311 50.6137 17.194C49.7958 18.7923 48.1774 19.299 47.4639 16.9897C46.9494 15.3245 47.1245 13.0538 47.3386 11.8274C47.6562 10.007 48.4515 8.71652 49.6931 8.8388C50.9685 8.96447 51.5885 10.615 51.4257 13.641V13.641ZM63.8861 13.662C63.8133 15.0353 63.4598 16.4147 63.0741 17.1942C62.2781 18.8035 60.6139 19.3065 59.9243 16.9899C59.4527 15.4069 59.5657 13.3583 59.7989 12.0677C60.1017 10.3927 60.8355 8.83898 62.1535 8.83898C63.4349 8.8388 64.0667 10.2546 63.8861 13.662V13.662ZM64.2113 23.0309C64.194 25.5361 63.8027 27.7326 62.9631 28.3705C61.7724 29.2751 60.172 28.5966 60.5034 26.7685C60.7966 25.1509 62.1834 23.4989 64.2148 21.4804C64.2146 21.4804 64.2189 21.9407 64.2113 23.0309V23.0309ZM85.7209 13.6766C85.6517 15.1842 85.3203 16.3628 84.909 17.194C84.1128 18.8033 82.4604 19.3029 81.7591 16.9897C81.3768 15.7287 81.359 13.6227 81.6338 11.863C81.9136 10.0705 82.6948 8.71652 83.9884 8.8388C85.2642 8.95931 85.8614 10.615 85.7209 13.6766V13.6766Z" stroke="black" stroke-width="8.41363" mask="url(#path-1-inside-1)"/>
</g>
<defs>
<filter id="filter0_d" x="0" y="0" width="113" height="38" filterUnits="userSpaceOnUse" color-interpolation-filters="sRGB">
<feFlood flood-opacity="0" result="BackgroundImageFix"/>
<feColorMatrix in="SourceAlpha" type="matrix" values="0 0 0 0 0 0 0 0 0 0 0 0 0 0 0 0 0 0 127 0"/>
<feOffset dy="4"/>
<feGaussianBlur stdDeviation="2"/>
<feColorMatrix type="matrix" values="0 0 0 0 0 0 0 0 0 0 0 0 0 0 0 0 0 0 0.25 0"/>
<feBlend mode="normal" in2="BackgroundImageFix" result="effect1_dropShadow"/>
<feBlend mode="normal" in="SourceGraphic" in2="effect1_dropShadow" result="shape"/>
</filter>
</defs>
</svg>
