<svg width="79" height="15" viewBox="0 0 79 15" fill="none" xmlns="http://www.w3.org/2000/svg">
<g clip-path="url(#clip0)">
<rect width="1448" height="2247" transform="translate(-681 -17)" fill="#FAFAFA"/>
<rect x="-62.5" y="-7.5" width="215" height="28" rx="2.5" fill="#FAFAFA" stroke="#DBDBDB"/>
<path d="M33.458 4.93H34.718C34.6993 4.37933 34.592 3.908 34.396 3.516C34.2093 3.11467 33.948 2.78333 33.612 2.522C33.2853 2.26067 32.9027 2.06933 32.464 1.948C32.0253 1.82667 31.5493 1.766 31.036 1.766C30.5787 1.766 30.1307 1.82667 29.692 1.948C29.2627 2.06 28.8753 2.23733 28.53 2.48C28.194 2.71333 27.9233 3.01667 27.718 3.39C27.5127 3.754 27.41 4.188 27.41 4.692C27.41 5.14933 27.4987 5.532 27.676 5.84C27.8627 6.13867 28.1053 6.386 28.404 6.582C28.712 6.76867 29.0573 6.92267 29.44 7.044C29.8227 7.156 30.21 7.25867 30.602 7.352C31.0033 7.436 31.3953 7.52 31.778 7.604C32.1607 7.688 32.5013 7.8 32.8 7.94C33.108 8.07067 33.3507 8.24333 33.528 8.458C33.7147 8.67267 33.808 8.95267 33.808 9.298C33.808 9.662 33.7333 9.96067 33.584 10.194C33.4347 10.4273 33.2387 10.614 32.996 10.754C32.7533 10.8847 32.478 10.978 32.17 11.034C31.8713 11.09 31.5727 11.118 31.274 11.118C30.9007 11.118 30.5367 11.0713 30.182 10.978C29.8273 10.8847 29.5147 10.74 29.244 10.544C28.9827 10.348 28.768 10.1007 28.6 9.802C28.4413 9.494 28.362 9.13 28.362 8.71H27.102C27.102 9.31667 27.2093 9.844 27.424 10.292C27.648 10.7307 27.9467 11.0947 28.32 11.384C28.7027 11.664 29.1413 11.874 29.636 12.014C30.14 12.154 30.672 12.224 31.232 12.224C31.6893 12.224 32.1467 12.168 32.604 12.056C33.0707 11.9533 33.4907 11.7853 33.864 11.552C34.2373 11.3093 34.5407 11.0013 34.774 10.628C35.0167 10.2453 35.138 9.788 35.138 9.256C35.138 8.76133 35.0447 8.35067 34.858 8.024C34.6807 7.69733 34.438 7.42667 34.13 7.212C33.8313 6.99733 33.4907 6.82933 33.108 6.708C32.7253 6.57733 32.3333 6.46533 31.932 6.372C31.54 6.27867 31.1527 6.19467 30.77 6.12C30.3873 6.036 30.042 5.93333 29.734 5.812C29.4353 5.69067 29.1927 5.53667 29.006 5.35C28.8287 5.154 28.74 4.902 28.74 4.594C28.74 4.26733 28.8007 3.99667 28.922 3.782C29.0527 3.558 29.2207 3.38067 29.426 3.25C29.6407 3.11933 29.8833 3.026 30.154 2.97C30.4247 2.914 30.7 2.886 30.98 2.886C31.6707 2.886 32.2353 3.04933 32.674 3.376C33.122 3.69333 33.3833 4.21133 33.458 4.93ZM41.5841 7.688H37.4261C37.4448 7.408 37.5054 7.14667 37.6081 6.904C37.7108 6.652 37.8508 6.43267 38.0281 6.246C38.2054 6.05933 38.4154 5.91467 38.6581 5.812C38.9101 5.7 39.1901 5.644 39.4981 5.644C39.7968 5.644 40.0674 5.7 40.3101 5.812C40.5621 5.91467 40.7768 6.05933 40.9541 6.246C41.1408 6.42333 41.2854 6.638 41.3881 6.89C41.5001 7.142 41.5654 7.408 41.5841 7.688ZM42.7321 9.704H41.5561C41.4534 10.18 41.2388 10.5347 40.9121 10.768C40.5948 11.0013 40.1841 11.118 39.6801 11.118C39.2881 11.118 38.9474 11.0527 38.6581 10.922C38.3688 10.7913 38.1308 10.6187 37.9441 10.404C37.7574 10.18 37.6221 9.928 37.5381 9.648C37.4541 9.35867 37.4168 9.05533 37.4261 8.738H42.8441C42.8628 8.29933 42.8208 7.83733 42.7181 7.352C42.6248 6.86667 42.4474 6.41867 42.1861 6.008C41.9341 5.59733 41.5934 5.26133 41.1641 5C40.7441 4.72933 40.2121 4.594 39.5681 4.594C39.0734 4.594 38.6161 4.68733 38.1961 4.874C37.7854 5.06067 37.4261 5.322 37.1181 5.658C36.8194 5.994 36.5861 6.39067 36.4181 6.848C36.2501 7.30533 36.1661 7.80933 36.1661 8.36C36.1848 8.91067 36.2641 9.41933 36.4041 9.886C36.5534 10.3527 36.7728 10.754 37.0621 11.09C37.3514 11.426 37.7061 11.6873 38.1261 11.874C38.5554 12.0607 39.0594 12.154 39.6381 12.154C40.4594 12.154 41.1408 11.9487 41.6821 11.538C42.2234 11.1273 42.5734 10.516 42.7321 9.704ZM50.4896 11.972C50.2843 12.0933 49.9996 12.154 49.6356 12.154C49.3276 12.154 49.0803 12.07 48.8936 11.902C48.7163 11.7247 48.6276 11.44 48.6276 11.048C48.301 11.44 47.9183 11.7247 47.4796 11.902C47.0503 12.07 46.5836 12.154 46.0796 12.154C45.753 12.154 45.4403 12.1167 45.1416 12.042C44.8523 11.9673 44.6003 11.8507 44.3856 11.692C44.171 11.5333 43.9983 11.328 43.8676 11.076C43.7463 10.8147 43.6856 10.502 43.6856 10.138C43.6856 9.72733 43.7556 9.39133 43.8956 9.13C44.0356 8.86867 44.2176 8.65867 44.4416 8.5C44.675 8.332 44.9363 8.206 45.2256 8.122C45.5243 8.038 45.8276 7.968 46.1356 7.912C46.4623 7.84667 46.7703 7.8 47.0596 7.772C47.3583 7.73467 47.6196 7.688 47.8436 7.632C48.0676 7.56667 48.245 7.478 48.3756 7.366C48.5063 7.24467 48.5716 7.072 48.5716 6.848C48.5716 6.58667 48.5203 6.37667 48.4176 6.218C48.3243 6.05933 48.1983 5.938 48.0396 5.854C47.8903 5.77 47.7176 5.714 47.5216 5.686C47.335 5.658 47.1483 5.644 46.9616 5.644C46.4576 5.644 46.0376 5.742 45.7016 5.938C45.3656 6.12467 45.1836 6.484 45.1556 7.016H43.9656C43.9843 6.568 44.0776 6.19 44.2456 5.882C44.4136 5.574 44.6376 5.32667 44.9176 5.14C45.1976 4.944 45.515 4.804 45.8696 4.72C46.2336 4.636 46.621 4.594 47.0316 4.594C47.3583 4.594 47.6803 4.61733 47.9976 4.664C48.3243 4.71067 48.6183 4.80867 48.8796 4.958C49.141 5.098 49.351 5.29867 49.5096 5.56C49.6683 5.82133 49.7476 6.162 49.7476 6.582V10.306C49.7476 10.586 49.7616 10.7913 49.7896 10.922C49.827 11.0527 49.939 11.118 50.1256 11.118C50.2283 11.118 50.3496 11.0947 50.4896 11.048V11.972ZM48.5576 8.262C48.4083 8.374 48.2123 8.458 47.9696 8.514C47.727 8.56067 47.4703 8.60267 47.1996 8.64C46.9383 8.668 46.6723 8.70533 46.4016 8.752C46.131 8.78933 45.8883 8.85467 45.6736 8.948C45.459 9.04133 45.2816 9.17667 45.1416 9.354C45.011 9.522 44.9456 9.75533 44.9456 10.054C44.9456 10.25 44.983 10.418 45.0576 10.558C45.1416 10.6887 45.2443 10.796 45.3656 10.88C45.4963 10.964 45.6456 11.0247 45.8136 11.062C45.9816 11.0993 46.159 11.118 46.3456 11.118C46.7376 11.118 47.0736 11.0667 47.3536 10.964C47.6336 10.852 47.8623 10.7167 48.0396 10.558C48.217 10.39 48.3476 10.2127 48.4316 10.026C48.5156 9.83 48.5576 9.648 48.5576 9.48V8.262ZM51.5552 4.762V12H52.7452V8.78C52.7452 8.31333 52.7918 7.90267 52.8852 7.548C52.9785 7.184 53.1278 6.876 53.3332 6.624C53.5385 6.372 53.8092 6.18067 54.1452 6.05C54.4812 5.91933 54.8872 5.854 55.3632 5.854V4.594C54.7192 4.57533 54.1872 4.706 53.7672 4.986C53.3472 5.266 52.9925 5.7 52.7032 6.288H52.6752V4.762H51.5552ZM60.9272 7.086H62.1592C62.1125 6.65667 62.0005 6.288 61.8232 5.98C61.6459 5.66267 61.4172 5.40133 61.1372 5.196C60.8665 4.99067 60.5492 4.84133 60.1852 4.748C59.8305 4.64533 59.4479 4.594 59.0372 4.594C58.4679 4.594 57.9685 4.69667 57.5392 4.902C57.1099 5.098 56.7505 5.37333 56.4612 5.728C56.1812 6.07333 55.9712 6.484 55.8312 6.96C55.6912 7.42667 55.6212 7.93067 55.6212 8.472C55.6212 9.01333 55.6912 9.51267 55.8312 9.97C55.9805 10.418 56.1952 10.8053 56.4752 11.132C56.7645 11.4587 57.1192 11.7107 57.5392 11.888C57.9685 12.0653 58.4585 12.154 59.0092 12.154C59.9332 12.154 60.6612 11.9113 61.1932 11.426C61.7345 10.9407 62.0705 10.25 62.2012 9.354H60.9832C60.9085 9.914 60.7032 10.348 60.3672 10.656C60.0405 10.964 59.5832 11.118 58.9952 11.118C58.6219 11.118 58.2999 11.0433 58.0292 10.894C57.7585 10.7447 57.5392 10.5487 57.3712 10.306C57.2032 10.054 57.0772 9.76933 56.9932 9.452C56.9185 9.13467 56.8812 8.808 56.8812 8.472C56.8812 8.108 56.9185 7.758 56.9932 7.422C57.0679 7.07667 57.1892 6.77333 57.3572 6.512C57.5345 6.25067 57.7679 6.04067 58.0572 5.882C58.3465 5.72333 58.7059 5.644 59.1352 5.644C59.6392 5.644 60.0405 5.77 60.3392 6.022C60.6379 6.274 60.8339 6.62867 60.9272 7.086ZM63.5327 2.004V12H64.7227V7.912C64.7227 7.58533 64.7647 7.28667 64.8487 7.016C64.9421 6.736 65.0774 6.49333 65.2547 6.288C65.4321 6.08267 65.6514 5.924 65.9127 5.812C66.1834 5.7 66.5007 5.644 66.8647 5.644C67.3221 5.644 67.6814 5.77467 67.9427 6.036C68.2041 6.29733 68.3347 6.652 68.3347 7.1V12H69.5247V7.24C69.5247 6.848 69.4827 6.49333 69.3987 6.176C69.3241 5.84933 69.1887 5.56933 68.9927 5.336C68.7967 5.10267 68.5401 4.92067 68.2227 4.79C67.9054 4.65933 67.5087 4.594 67.0327 4.594C66.8181 4.594 66.5941 4.61733 66.3607 4.664C66.1367 4.71067 65.9174 4.78533 65.7027 4.888C65.4974 4.98133 65.3107 5.10733 65.1427 5.266C64.9747 5.41533 64.8441 5.602 64.7507 5.826H64.7227V2.004H63.5327Z" fill="#8F8F8F"/>
<path d="M17.4375 12C17.5078 12 17.5781 11.9868 17.6484 11.9604C17.7188 11.9341 17.7803 11.8916 17.833 11.833C17.9443 11.7217 18 11.5898 18 11.4375C18 11.2852 17.9443 11.1533 17.833 11.042L16.1543 9.36328C16.4062 9.0293 16.6025 8.66016 16.7432 8.25586C16.8838 7.85156 16.9541 7.42676 16.9541 6.98145C16.9541 6.43066 16.8501 5.91357 16.6421 5.43018C16.4341 4.94678 16.1499 4.5249 15.7896 4.16455C15.4292 3.8042 15.0073 3.52002 14.5239 3.31201C14.0405 3.104 13.5264 3 12.9814 3C12.4307 3 11.9136 3.104 11.4302 3.31201C10.9468 3.52002 10.5249 3.8042 10.1646 4.16455C9.8042 4.5249 9.52002 4.94678 9.31201 5.43018C9.104 5.91357 9 6.43066 9 6.98145C9 7.52637 9.104 8.04053 9.31201 8.52393C9.52002 9.00732 9.8042 9.4292 10.1646 9.78955C10.5249 10.1499 10.9468 10.4341 11.4302 10.6421C11.9136 10.8501 12.4307 10.9541 12.9814 10.9541C13.4268 10.9541 13.8516 10.8838 14.2559 10.7432C14.6602 10.6025 15.0293 10.4062 15.3633 10.1543L17.042 11.833C17.0947 11.8916 17.1562 11.9341 17.2266 11.9604C17.2969 11.9868 17.3672 12 17.4375 12ZM12.9814 9.8291C12.583 9.8291 12.2109 9.75439 11.8652 9.60498C11.5195 9.45557 11.2178 9.25195 10.96 8.99414C10.7021 8.73633 10.4985 8.43457 10.3491 8.08887C10.1997 7.74316 10.125 7.37402 10.125 6.98145C10.125 6.58301 10.1997 6.21094 10.3491 5.86523C10.4985 5.51953 10.7021 5.21777 10.96 4.95996C11.2178 4.70215 11.5195 4.49854 11.8652 4.34912C12.2109 4.19971 12.583 4.125 12.9814 4.125C13.374 4.125 13.7432 4.19971 14.0889 4.34912C14.4346 4.49854 14.7363 4.70215 14.9941 4.95996C15.252 5.21777 15.4556 5.51953 15.605 5.86523C15.7544 6.21094 15.8291 6.58301 15.8291 6.98145C15.8291 7.37402 15.7544 7.74316 15.605 8.08887C15.4556 8.43457 15.252 8.73633 14.9941 8.99414C14.7363 9.25195 14.4346 9.45557 14.0889 9.60498C13.7432 9.75439 13.374 9.8291 12.9814 9.8291Z" fill="#8F8F8F"/>
</g>
<defs>
<clipPath id="clip0">
<rect width="1448" height="2247" fill="white" transform="translate(-681 -17)"/>
</clipPath>
</defs>
</svg>
